PathFileType	4	(X/Y/Z)	path1_10_0-575.trc
DataRate	CameraRate	NumFrames	NumMarkers	Units	OrigDataRate	OrigDataStartFrame	OrigNumFrames
30	30	6	22	m	30	0	575
Frame#	Time	Hip			RHip			RKnee			RAnkle			RBigToe			RSmallToe			RHeel			LHip			LKnee			LAnkle			LBigToe			LSmallToe			LHeel			Neck			Head			Nose			RShoulder			RElbow			RWrist			LShoulder			LElbow			LWrist		
		X1	Y1	Z1	X2	Y2	Z2	X3	Y3	Z3	X4	Y4	Z4	X5	Y5	Z5	X6	Y6	Z6	X7	Y7	Z7	X8	Y8	Z8	X9	Y9	Z9	X10	Y10	Z10	X11	Y11	Z11	X12	Y12	Z12	X13	Y13	Z13	X14	Y14	Z14	X15	Y15	Z15	X16	Y16	Z16	X17	Y17	Z17	X18	Y18	Z18	X19	Y19	Z19	X20	Y20	Z20	X21	Y21	Z21	X22	Y22	Z22
1	0.0333333333333333	2.553072772873045	0.8317730817268755	0.779740585855825	2.552818533631389	0.8058072825104222	0.7047028968208925	2.5113577395474787	0.46401141160999915	0.691468966668631	2.5687904110100974	0.09346250072642852	0.7241328731584886	2.3859051247566243	0.021487368990451016	0.710363981223156	2.4308627682119814	0.016251649331360914	0.6562246037482371	2.6120820416119837	0.03563540034915942	0.7084083891137721	2.552855396777106	0.8032210546766668	0.8719906072385544	2.5452520090238595	0.43014482751942956	0.8666938342768826	2.5913265683673665	0.08384638280742514	0.8673237199920301	2.403268557536107	0.011656176844601357	0.9036478560734781	2.466085173231335	0.01927904039812766	0.9814757920416037	2.6413486586463737	0.025579271380543805	0.8895748611044387	2.5446615242596207	1.463775334511999	0.7405336363728572	2.472815277629879	1.6956765896052437	0.7651984559142504	2.4169227988398863	1.6135670365988057	0.7521681130641065	2.57586344103374	1.364969060023548	0.6153858091521953	2.615405895999676	1.0719070687235757	0.624581073071487	2.585690432894347	0.8391865048146494	0.5968471970504272	2.577442705805714	1.3578328765752763	0.9226303797911559	2.629267475194179	1.0754225675015379	0.961663698906618	2.614389432765234	0.8222605560740219	0.9368411973209027
2	0.0666666666666666	2.5499030882367166	0.8334609648858516	0.780757268380303	2.5497924896062925	0.8063280321231091	0.7030624185489041	2.5132047777903823	0.466370815153588	0.6926533314535748	2.566169998079223	0.09932983502571441	0.7188116416934818	2.3873008604428927	0.023974991462174085	0.7095446839765212	2.4279260102349807	0.01892588106611495	0.6523862382496036	2.615531275141594	0.03490906180987066	0.7159858414533705	2.5511729503351592	0.8029504412485169	0.8685861400095769	2.5476135392291015	0.43412150576364467	0.8657954710550929	2.5855123039887653	0.08955540809204746	0.8692409249608609	2.4054565567154778	0.012310362171129624	0.899881490217517	2.4542409754293453	0.022802648499310612	0.9679008276363936	2.6358710187211787	0.028501248937657524	0.8839323059914405	2.5389632126509274	1.4627271397529227	0.7533953769048258	2.49020836742026	1.7065796009702556	0.750684208647969	2.4156411659381294	1.6124135228286207	0.7559433015687216	2.575701884794925	1.3640505173009243	0.617454258076467	2.6063399220008234	1.073339940506252	0.6093776228893092	2.5844723271056713	0.8436713836758374	0.5957506600431683	2.5703663043438763	1.356048617192354	0.9301936379429177	2.627789715332037	1.0763629200503702	0.9615473551141536	2.6079477240291333	0.8214397175168741	0.9384911148897054
3	0.1	2.5474068450728597	0.8348075015636856	0.7817003037034336	2.5475389492009914	0.8067033428865988	0.7017577695150343	2.514793969075494	0.4683250243663944	0.6938153631249306	2.563570869102274	0.104497850509744	0.713767834224905	2.388351800150305	0.025908316777977697	0.708930722546748	2.4255747042500073	0.021087193727002008	0.6492633098727061	2.618149531102841	0.03445073203132255	0.7218299534534576	2.54980015369781	0.8025732924335598	0.8658231739424701	2.5494067473512962	0.4371929234869307	0.8650556698567163	2.580057569530946	0.09463536511421804	0.8704841218358594	2.4071138853893235	0.012833193088994783	0.8970697017760175	2.4441945674120733	0.025886954626052765	0.9571042373956905	2.631260629383391	0.030933948451476945	0.8791811787003058	2.534066755220711	1.4616650607350066	0.7638126716132037	2.5040967152756117	1.7149533212584074	0.7406904092198143	2.4145634986106295	1.6114267443554482	0.7596291937793572	2.575621812912717	1.3633291990206393	0.6193688829531327	2.599118415327931	1.0745043961157381	0.5974759932239281	2.5836581755267094	0.8473362118252216	0.5951276446439688	2.5646255965572697	1.3544906977739946	0.9365459123089118	2.626562135435915	1.077156840340312	0.9616980866718257	2.6028431150549007	0.8208269401645113	0.9402282245145884
4	0.1333333333333333	2.545869512245645	0.8356486255618575	0.7825163316344067	2.546280794544217	0.8068997157691745	0.7009981912048667	2.515880022030214	0.4696708678945438	0.6948532237804305	2.561259097393758	0.10837559743868402	0.7096434820625107	2.3886372141220082	0.027037448501013642	0.7085271467634274	2.4239524178502787	0.02250649825101608	0.6472378740720522	2.619658998237413	0.03420674572453314	0.7253740741587965	2.5489411127659687	0.8021013231149366	0.8640169055697655	2.5504779658600225	0.43896923144682265	0.8652565501075309	2.5756310731608867	0.09853874560654091	0.8712445422382179	2.4079094089513693	0.013229232100810805	0.895934105104184	2.4367495248596853	0.028352965752437332	0.9502763796601545	2.6281886178393465	0.032573498340504284	0.8758452834714733	2.5305183933292854	1.4608229408411861	0.7714658869404368	2.513029138421233	1.719658944566935	0.737011203144834	2.413840861716752	1.6107599793582839	0.7630204002334623	2.575663844787422	1.3629008937305342	0.6209835090227928	2.594561583969879	1.0753047906250275	0.590211249179352	2.5833674733977507	0.8498404506486232	0.5951196543955757	2.560999567305052	1.3533178866958648	0.9409407373097278	2.6256387995431	1.0776852173526077	0.9621506416985705	2.599816621741709	0.8205626925839984	0.9419678126358256
5	0.1666666666666666	2.545187378689795	0.836035151611804	0.7832028845449196	2.5456868036647062	0.8070761122507938	0.7007838491155791	2.5163511557619325	0.4704151319691366	0.6956504045057301	2.5595181996128282	0.1107525269417298	0.7069012732036782	2.3878392289128754	0.027441109512840876	0.7081383875193589	2.4228393428155184	0.0232247438725927	0.6463659189027993	2.620313509942045	0.033945328485950325	0.7271274949585831	2.548587280470435	0.801729692142523	0.8631028475014046	2.550917723039477	0.4397607308683112	0.866886905408512	2.5728634952102727	0.10095833608838152	0.871988453262595	2.4079618674774736	0.013483368820248306	0.8964977489000623	2.431871175913627	0.030184551312146188	0.9469536865058674	2.6268847121244536	0.03334798825189234	0.8739487097083868	2.5285884507695706	1.4605248360121383	0.7774127919160472	2.5175348192300167	1.7211558354103738	0.7387125406494854	2.413497156087559	1.610421463849887	0.7658985286426567	2.5758330049243394	1.3627714581220973	0.6222389395204253	2.592429018368373	1.0757673938184789	0.5869640901417021	2.5834616890554964	0.8512753245675408	0.595545465412882	2.558932215407122	1.3524385033010276	0.9441010302988959	2.624934811004301	1.0778621255936873	0.9627766570362636	2.598828453799519	0.8205641287928755	0.9435359879527816
6	0.2	2.5451265367391525	0.836133428967742	0.7837982482912366	2.545317230595046	0.8074643613462599	0.7009395501092248	2.5163357840949647	0.4706713129441236	0.6961622884402499	2.5584578114260337	0.1118424724885711	0.7054052944735125	2.3860889717614477	0.027423767880893686	0.7076511568949173	2.4220221018175483	0.023376288370165397	0.6465447625700326	2.620583353904221	0.03352297444788634	0.7278846238107175	2.548521092166015	0.8017186951705976	0.862815292339651	2.55077315220295	0.4402432079466599	0.869391445931342	2.5716425852235263	0.1021151182039459	0.8726586679929794	2.4077703202178875	0.013350134259872559	0.8979770240501587	2.4291750132589485	0.031450839948926605	0.9459842242604631	2.626976878544298	0.03341287350544488	0.8731478713312875	2.528260838555508	1.4608565312804949	0.7822594561100906	2.5188469319080165	1.7208610023664783	0.7431996055270486	2.4133966859782454	1.6102087775413918	0.7680569931922361	2.5760760756648056	1.3629038662528687	0.6231644608888999	2.5919705419250834	1.0759111684413334	0.5863627565511159	2.5837232081961785	0.8518813249870604	0.596145383456763	2.5570475546391758	1.3515984560499825	0.9476055970511622	2.6243718850398228	1.077658929292812	0.963455699428099	2.599264166219837	0.8205335335425596	0.9448327212817521
